<svg xmlns="http://www.w3.org/2000/svg" viewBox="0 0 282 92.6"><path d="M184.2 1c-22.4 0-38.2 11.9-38.3 29-.1 12.6 11.3 19.7 19.8 23.9 8.9 4.3 11.8 7 11.8 10.9-.1 5.9-7.1 8.6-13.6 8.6-9.1 0-13.9-1.3-21.3-4.6l-2.9-1.4-3.2 19.7c5.3 2.4 15.1 4.6 25.3 4.7 23.8 0 39.3-11.8 39.5-30 .1-10-6-17.6-19.1-23.9-7.9-4.1-12.8-6.8-12.7-10.9 0-3.6 4.1-7.5 13-7.5 7.4-.1 12.8 1.6 17 3.4l2 1 3.1-19C200 2.9 193 1 184.2 1zm-70.4 1.5L99.6 90.3h22.7l14.2-87.8h-22.7zm-33.2.1L58.4 62.4 56 50.3c-5.5-14.9-17.5-30.6-31.4-36.9l20.3 76.8h24l35.7-87.6h-24zm164.5 0c-5.4 0-9.5 1.5-11.9 7.3l-33.7 80.5h23.8s3.9-10.8 4.8-13.2h29c.7 3.1 2.8 13.2 2.8 13.2H281L262.7 2.6h-17.6zm1.6 23.7l1.5 7.6 5.3 25.3h-18.8c1.9-5 9-24.5 9-24.5-.1.2 1.9-5.1 3-8.4z" fill="#1b3d7c"/><path d="M37.8 2.6H1.2L1 4.1c28.4 7.3 47.2 25.1 55 46.2L48.1 9.9c-1.4-5.5-5.4-7.2-10.3-7.3" fill="#ffab00"/></svg>