<svg id="Capa_1" xmlns="http://www.w3.org/2000/svg" viewBox="0 0 345 130"><style>.st0{fill:#004a97}.st1{fill:#fff}</style><path class="st0" d="M76.1 105.9c22.4.1 42.8-18.2 42.8-40.6 0-24.4-20.4-41.3-42.8-41.3H56.8c-22.6 0-41.3 16.9-41.3 41.3 0 22.3 18.6 40.7 41.3 40.6h19.3z"/><path class="st1" d="M65.4 87.1V42.8c8.9 3.4 15.2 12 15.3 22.2 0 10.1-6.4 18.7-15.3 22.1M33.2 64.9c0-10.1 6.3-18.7 15.2-22.2V87c-8.9-3.3-15.2-12-15.2-22.1m23.7-37.5c-20.7 0-37.5 16.8-37.5 37.5s16.8 37.5 37.5 37.5 37.5-16.8 37.5-37.5-16.8-37.4-37.5-37.5"/><path d="M136.2 61.9c0 3.3 2.4 3.7 4.5 3.7 9.3 0 12.4-7 12.4-13.4 0-8-5.2-13.9-13.5-13.9-1.8 0-2.6.1-3.4.2v23.4zM132 41.7c0-3.9-2-3.6-4-3.7v-1.1c1.7.1 3.4.1 5.1.1 1.8 0 4.3-.1 7.5-.1 11.1 0 17.2 7.4 17.2 15.1 0 4.3-2.5 15-17.7 15-2.2 0-4.2-.1-6.2-.1-1.9 0-3.8 0-5.8.1v-1.1c2.6-.3 3.8-.3 4-3.3V41.7zm31.9-1.1c-1.1 0-2.1-1-2.1-2.2 0-1.1 1-2.1 2.1-2.1s2.1.9 2.1 2.1c0 1.3-.9 2.2-2.1 2.2m-4.6 25.2h.8c1.2 0 2.1 0 2.1-1.4V52.7c0-1.9-.6-2.2-2.2-3V49c2-.6 4.4-1.4 4.6-1.5.3-.2.6-.2.8-.2.2 0 .3.3.3.6v16.5c0 1.4.9 1.4 2.2 1.4h.7V67c-1.5 0-3-.1-4.5-.1-1.6 0-3.1 0-4.7.1v-1.2zM172.6 53c0-1.6-.5-2-2.5-2.8v-.8c1.8-.6 3.6-1.2 5.7-2.1.1 0 .3.1.3.4v2.8c2.5-1.8 4.6-3.2 7.5-3.2 3.7 0 4.9 2.7 4.9 6v11.1c0 1.4.9 1.4 2.2 1.4h.8V67c-1.5 0-3-.1-4.6-.1-1.6 0-3.1 0-4.7.1v-1.1h.8c1.2 0 2.1 0 2.1-1.4V53.3c0-2.5-1.5-3.7-4-3.7-1.4 0-3.6 1.1-5 2.1v12.7c0 1.4 1 1.4 2.2 1.4h.8V67c-1.5 0-3-.1-4.6-.1-1.5 0-3.1 0-4.6.1v-1.1h.8c1.2 0 2.1 0 2.1-1.4V53zm29.7.7c1.1 0 1.2-.6 1.2-1.1 0-2.2-1.3-4-3.7-4-2.6 0-4.4 1.9-4.9 5h7.4zm-7.6 1.4c-.1.4-.1 1 0 2.5.3 4.1 2.9 7.4 6.3 7.4 2.4 0 4.2-1.3 5.8-2.9l.6.6c-2 2.6-4.4 4.9-8 4.9-6.8 0-8.2-6.6-8.2-9.4 0-8.4 5.7-10.9 8.7-10.9 3.5 0 7.2 2.2 7.3 6.8v.8l-.4.3h-12.1zm13.5 10.7h1.2c1.2 0 2.1 0 2.1-1.4V52.3c0-1.3-1.6-1.6-2.2-1.9v-.6c3.1-1.3 4.9-2.5 5.3-2.5.3 0 .4.1.4.6v3.9h.1c1.1-1.7 2.9-4.4 5.5-4.4 1.1 0 2.5.7 2.5 2.3 0 1.2-.8 2.2-2 2.2-1.3 0-1.3-1-2.8-1-.7 0-3.1 1-3.1 3.6v10.1c0 1.4.9 1.4 2.1 1.4h2.4v1c-2.4 0-4.2-.1-6-.1-1.8 0-3.6 0-5.1.1v-1.2zm16.6-4.8c.6 2.8 2.3 5.3 5.4 5.3 2.5 0 3.5-1.5 3.5-3.1 0-5.1-9.4-3.4-9.4-10.4 0-2.4 1.9-5.5 6.7-5.5 1.4 0 3.2.4 4.9 1.3l.3 4.4h-1c-.4-2.7-1.9-4.3-4.7-4.3-1.7 0-3.4 1-3.4 2.8 0 5 10 3.5 10 10.2 0 2.8-2.3 5.9-7.4 5.9-1.7 0-3.7-.6-5.3-1.5l-.5-5 .9-.1zM276 44.7h-1.1c-.8-5-4.4-7.1-9.2-7.1-5 0-12.1 3.3-12.1 13.6 0 8.7 6.2 14.9 12.8 14.9 4.3 0 7.8-2.9 8.7-7.4l1 .3-1 6.3c-1.8 1.1-6.7 2.3-9.5 2.3-10.1 0-16.4-6.5-16.4-16.2 0-8.8 7.9-15.2 16.3-15.2 3.5 0 6.8 1.1 10.2 2.3l.3 6.2zm1.6 21.1h.8c1.2 0 2.1 0 2.1-1.4v-24c0-2.8-.6-2.9-2.3-3.4v-.7c1.7-.6 3.5-1.3 4.4-1.9.5-.3.8-.5.9-.5.3 0 .3.3.3.6v29.7c0 1.4.9 1.4 2.2 1.4h.7V67c-1.5 0-3-.1-4.5-.1s-3.1 0-4.7.1v-1.2zm27.6-1.2c0 .8.5.8 1.2.8h1.7v.9c-1.9.2-5.4 1.1-6.2 1.3l-.2-.1V64c-2.6 2.1-4.6 3.6-7.6 3.6-2.3 0-4.7-1.5-4.7-5.1v-11c0-1.1-.2-2.2-2.6-2.4v-.8c1.6 0 5-.3 5.6-.3.5 0 .5.3.5 1.2v11.1c0 1.3 0 5 3.7 5 1.5 0 3.4-1.1 5.2-2.6V51.1c0-.9-2.1-1.3-3.6-1.8v-.8c3.9-.3 6.3-.6 6.7-.6.3 0 .3.3.3.8v15.9zm8.6-2.5c0 1.6 1.5 4.4 4.4 4.4 4.6 0 6.5-4.5 6.5-8.4 0-4.6-3.5-8.5-6.9-8.5-1.6 0-2.9 1-4.1 2v10.5zm0-11.7c1.7-1.5 4-3.1 6.4-3.1 5 0 8 4.4 8 9 0 5.6-4.1 11.3-10.3 11.3-3.2 0-4.9-1-6-1.5l-1.3 1-.9-.5c.4-2.5.6-5 .6-7.7V40.4c0-2.8-.6-2.9-2.3-3.4v-.7c1.7-.6 3.5-1.3 4.4-1.9.5-.3.8-.5.9-.5.3 0 .3.3.3.6v15.9zM128 92h.3c.8 0 1.7-.1 1.7-1.3V78.4c0-1.2-.9-1.3-1.7-1.3h-.3v-.7c.9 0 2.3.1 3.5.1 1.2 0 2.6-.1 3.7-.1v.6h-.3c-.8 0-1.7.1-1.7 1.3v12.3c0 1.2.9 1.3 1.7 1.3h.3v.7c-1.1 0-2.5-.1-3.7-.1-1.1 0-2.5.1-3.4.1V92z"/><path d="M135.1 92.6v-.5h-.2c-.8 0-1.8-.1-1.8-1.4V78.4c0-1.3 1-1.4 1.8-1.4h.2v-.5c-1.1 0-2.4.1-3.6.1-1.1 0-2.5-.1-3.4-.1v.5h.2c.8 0 1.8.1 1.8 1.4v12.3c0 1.3-1 1.4-1.8 1.4h-.2v.5c.9 0 2.2-.1 3.3-.1 1.2 0 2.5.1 3.7.1m.1.2c-1.1 0-2.5-.1-3.7-.1-1.1 0-2.5.1-3.4.1h-.1v-.9h.4c.9 0 1.6-.1 1.6-1.2V78.4c0-1.1-.8-1.2-1.6-1.2h-.4v-1h.1c.9 0 2.3.1 3.5.1 1.2 0 2.6-.1 3.7-.1h.1v.9h-.4c-.9 0-1.6.1-1.6 1.2v12.3c0 1.1.8 1.2 1.6 1.2h.4v1h-.2zm16-4.7v-8.8c0-1.9-1.3-2.2-2-2.2h-.5v-.7c1.1 0 2.2.1 3.3.1 1 0 1.9-.1 2.9-.1v.6h-.3c-1 0-2.1.2-2.1 3v10.7c0 .8 0 1.6.1 2.4h-.9l-12.1-13.4v9.7c0 2 .4 2.7 2.2 2.7h.4v.7c-1 0-2-.1-3-.1-1.1 0-2.1.1-3.2.1V92h.3c1.6 0 2.1-1.1 2.1-3v-9.9c0-1.3-1.1-2.1-2.1-2.1h-.3v-.7c.9 0 1.8.1 2.7.1.7 0 1.4-.1 2.1-.1l10.4 11.8z"/><path d="M151.2 88zm0 .1zm.5 4.8h.8c-.1-.7-.1-1.5-.1-2.3V80c0-2.8 1.2-3.1 2.2-3.1h.2v-.5c-.9 0-1.8.1-2.8.1-1.1 0-2.1-.1-3.2-.1v.5h.4c.7 0 2.1.3 2.1 2.3v8.9l-.1.1-10.4-11.8c-.7 0-1.4.1-2.1.1-.9 0-1.7-.1-2.6-.1v.5h.2c1.1 0 2.2.8 2.2 2.2V89c0 1.9-.5 3.1-2.2 3.1h-.2v.5c1 0 2.1-.1 3.1-.1s2 .1 2.9.1v-.5h-.3c-1.8 0-2.3-.8-2.3-2.8v-9.9l12.2 13.5zm.9.2h-1l-11.9-13.3v9.4c0 2 .3 2.6 2.1 2.6h.5v1h-.1c-1 0-2-.1-3-.1s-2.1.1-3.2.1h-.1v-.9h.4c1.5 0 2-1 2-2.9v-9.9c0-1.2-1-2-2-2h-.4v-.9h.1c.9 0 1.8.1 2.7.1.7 0 1.4-.1 2.2-.1l10.3 11.6v-8.6c0-1.9-1.3-2.1-1.9-2.1h-.6v-.9h.1c1.1 0 2.2.1 3.3.1 1 0 1.9-.1 2.9-.1h.1v.9h-.4c-1 0-2 .1-2 2.9v10.7c0 .8 0 1.6.1 2.3v.1h-.2zm5.8-15.6c-1.8 0-1.8.4-2.2 2.1h-.7c.1-.7.2-1.3.3-2 .1-.7.1-1.3.1-2h.6c.2.7.8.7 1.4.7H170c.6 0 1.2 0 1.3-.7l.6.1c-.1.6-.2 1.3-.3 1.9v1.9l-.7.3c0-.9-.2-2.3-1.7-2.3h-3.8V90c0 1.8.8 2 1.9 2h.4v.7c-.9 0-2.6-.1-3.8-.1-1.4 0-3 .1-4 .1V92h.4c1.3 0 1.9-.1 1.9-2V77.5h-3.8z"/><path d="M167.6 92.8c-.9 0-2.6-.1-3.8-.1-1.4 0-3 .1-4 .1h-.1v-.9h.5c1.3 0 1.8 0 1.8-1.9V77.6h-3.7v-.2h3.9V90c0 1.9-.8 2.1-2 2.1h-.2v.5c.9 0 2.5-.1 3.9-.1 1.2 0 2.8.1 3.7.1v-.5h-.3c-1.1 0-2-.3-2-2.1V77.4h3.9c1.6 0 1.8 1.3 1.8 2.2l.5-.2v-1.8c.1-.6.2-1.2.2-1.8l-.4-.1c-.1.7-.8.7-1.4.7h-12.2c-.5 0-1.2 0-1.4-.7h-.4c0 .6 0 1.3-.1 1.9-.1.6-.2 1.3-.3 1.9h.5c.3-1.6.5-2.2 2.3-2.1v.2c-1.7 0-1.7.3-2.1 2.1v.1h-.9v-.1c.1-.7.2-1.3.3-2 .1-.6.1-1.3.1-2v-.1h.7v.1c.2.6.6.6 1.2.6H170c.7 0 1.1 0 1.2-.6v-.1h.1l.7.1v.1c-.1.6-.2 1.3-.3 1.9v2h-.1l-.8.3v-.1c-.1-.9-.2-2.2-1.6-2.2h-3.7V90c0 1.8.7 1.9 1.8 1.9h.5v.9h-.2zm5-.8h.3c.8 0 1.7-.1 1.7-1.3V78.4c0-1.2-.9-1.3-1.7-1.3h-.3v-.7c1.4 0 3.9.1 5.8.1 2 0 4.4-.1 6-.1 0 1 0 2.6.1 3.6l-.7.2c-.1-1.5-.4-2.7-2.9-2.7h-3.3v6.1h2.8c1.4 0 1.7-.8 1.9-2.1h.7c0 .9-.1 1.8-.1 2.7 0 .9 0 1.8.1 2.7l-.7.1c-.1-1.4-.2-2.3-1.8-2.3h-2.8v5.5c0 1.5 1.4 1.5 2.9 1.5 2.8 0 4.1-.2 4.8-2.9l.7.2c-.3 1.2-.6 2.5-.8 3.7-1.5 0-4.2-.1-6.3-.1-2.1 0-4.9.1-6.2.1V92z"/><path d="M185 92.6c.2-1.2.5-2.4.8-3.5l-.5-.1c-.7 2.6-2.1 2.9-4.8 2.8-1.5 0-3 0-3-1.6v-5.6h2.9c1.6 0 1.8 1 1.9 2.3l.5-.1c0-.9-.1-1.7-.1-2.6 0-.9 0-1.8.1-2.6h-.5c-.1 1.2-.5 2.1-1.9 2.1h-2.9v-6.3h3.4c2.4 0 2.8 1.2 2.9 2.7l.5-.1c0-.7-.1-1.5-.1-2.3v-1.1c-1.6 0-4 .1-5.9.1-1.9 0-4.3-.1-5.7-.1v.5h.2c.8 0 1.8.1 1.8 1.4v12.3c0 1.3-1 1.4-1.8 1.4h-.2v.5c1.4 0 4.1-.1 6.1-.1 2.2-.1 4.8 0 6.3 0m.1.2c-1.5 0-4.2-.1-6.3-.1-2.1 0-4.9.1-6.2.1h-.1v-.9h.4c.8 0 1.6-.1 1.6-1.2V78.4c0-1.1-.8-1.2-1.6-1.2h-.4v-1h.1c1.4 0 3.9.1 5.8.1 2 0 4.4-.1 6-.1h.1v1.3c0 .8 0 1.7.1 2.4v.1h-.1l-.8.2v-.1c-.1-1.5-.3-2.6-2.8-2.6h-3.2v5.9h2.7c1.3 0 1.6-.7 1.8-2v-.1h.9v.1c0 .9-.1 1.8-.1 2.7 0 .9 0 1.8.1 2.7v.1h-.1l-.8.2V87c-.2-1.4-.2-2.2-1.7-2.2h-2.7v5.4c0 1.4 1.2 1.4 2.8 1.4 2.8 0 4-.2 4.7-2.8v-.1h.1l.8.2v.1c-.3 1.2-.6 2.5-.8 3.7l-.3.1zm7-8.5h1.1c2.3 0 3.6-.9 3.6-3.7 0-2.1-1.3-3.4-3.4-3.4-.7 0-1 .1-1.3.1v7zm-3-5.5c0-1.7-.9-1.8-1.7-1.8h-.4v-.7c.8 0 2.2.1 3.6.1s2.5-.1 3.8-.1c3 0 5.6.8 5.6 4.1 0 2.1-1.4 3.4-3.3 4.1l4 6c.7 1 1.1 1.3 2.3 1.4v.7c-.8 0-1.5-.1-2.3-.1-.7 0-1.5.1-2.2.1-1.8-2.4-3.4-4.9-4.9-7.6h-1.5v5c0 1.8.8 1.9 1.9 1.9h.4v.7c-1.3 0-2.7-.1-4-.1-1.1 0-2.2.1-3.4.1V92h.4c.9 0 1.7-.4 1.7-1.3V78.8z"/><path d="M193.2 84.2c2.3 0 3.5-.8 3.5-3.5 0-2-1.3-3.3-3.3-3.3-.6 0-.9.1-1.2.1v6.8h1zm-1.1.2h-.1v-7.2h.1c.3 0 .6-.1 1.3-.1 2.1 0 3.5 1.4 3.5 3.5 0 2.8-1.3 3.7-3.7 3.8h-1.1zm0 .6h1.6v.1c1.5 2.7 3.1 5.2 4.8 7.5.7 0 1.5-.1 2.2-.1.7 0 1.5.1 2.2.1v-.5c-1.1-.1-1.6-.5-2.3-1.4l-4.1-6.1h.1c1.8-.7 3.2-2 3.2-4 0-3.2-2.5-4-5.5-4-1.2 0-2.4.1-3.8.1s-2.8-.1-3.5-.1v.5h.3c.7 0 1.8.1 1.8 1.9v11.9c0 .9-.9 1.4-1.8 1.4h-.3v.5c1.1 0 2.2-.1 3.3-.1 1.3 0 2.6.1 3.9.1v-.5h-.2c-1.1 0-2-.1-2-2V85h.1zm10.9 7.8c-.8 0-1.5-.1-2.3-.1-.7 0-1.5.1-2.3.1-1.8-2.4-3.3-4.9-4.9-7.6h-1.4v4.9c0 1.8.7 1.7 1.8 1.8h.5v.9h-.1c-1.3 0-2.7-.1-4-.1-1.1 0-2.2.1-3.4.1h-.1v-.9h.5c.8 0 1.6-.4 1.6-1.2V78.8c0-1.7-.8-1.7-1.6-1.7h-.5v-.9h.1c.8 0 2.2.1 3.6.1s2.5-.1 3.8-.1c3 0 5.7.8 5.7 4.2 0 2.1-1.4 3.4-3.2 4.2l3.9 5.9c.7 1 1.1 1.2 2.2 1.4h.1v.9zm15.9-4.7v-8.8c0-1.9-1.3-2.2-2-2.2h-.5v-.7c1.1 0 2.2.1 3.3.1 1 0 1.9-.1 2.9-.1v.6h-.4c-1 0-2.1.2-2.1 3v10.7c0 .8 0 1.6.1 2.4h-.9l-12.1-13.4v9.7c0 2 .4 2.7 2.2 2.7h.4v.7c-1 0-2-.1-3-.1-1.1 0-2.1.1-3.2.1V92h.3c1.6 0 2.1-1.1 2.1-3v-9.9c0-1.3-1.1-2.1-2.1-2.1h-.3v-.7c.9 0 1.8.1 2.7.1.7 0 1.4-.1 2.1-.1l10.5 11.8z"/><path d="M218.8 88zm.1.1zm.5 4.8h.8c-.1-.7-.1-1.5-.1-2.3V80c0-2.8 1.2-3.1 2.2-3.1h.2v-.5c-.9 0-1.8.1-2.8.1-1.1 0-2.1-.1-3.2-.1v.5h.4c.7 0 2.1.3 2.1 2.3v8.9l-.1.1-10.4-11.8c-.7 0-1.4.1-2.1.1-.9 0-1.7-.1-2.6-.1v.5h.2c1.1 0 2.2.8 2.2 2.2V89c0 1.9-.5 3.1-2.2 3.1h-.2v.5c1 0 2.1-.1 3.1-.1s2 .1 2.9.1v-.5h-.3c-1.8 0-2.3-.8-2.3-2.8v-9.9l12.2 13.5zm.9.2h-1l-11.9-13.3v9.4c0 2 .3 2.6 2.1 2.6h.5v1h-.1c-1 0-2-.1-3-.1s-2.1.1-3.2.1h-.1v-.9h.4c1.5 0 2-1 2-2.9v-9.9c0-1.2-1-2-2-2h-.4v-.9h.1c.9 0 1.8.1 2.7.1.7 0 1.4-.1 2.2-.1l10.3 11.6v-8.6c0-1.9-1.3-2.1-1.9-2.1h-.6v-.9h.1c1.1 0 2.2.1 3.3.1 1 0 1.9-.1 2.9-.1h.1v.9h-.4c-1 0-2 .1-2 2.9v10.7c0 .8 0 1.6.1 2.4v.1h-.2zm9.4-14.1l-2.2 6.6h4.4l-2.2-6.6zm-3.4 10.3c-.2.8-.5 1.4-.5 1.8 0 .7 1 .8 1.8.8h.3v.7c-.9-.1-1.9-.1-2.8-.1-.8 0-1.7 0-2.5.1V92h.1c.9 0 1.7-.5 2-1.5l3.8-10.7c.3-.9.7-2 .9-2.9.7-.3 1.7-.7 2.1-1h.2c.1 0 .1 0 .2.1.1.2.1.4.2.6l4.3 12.3c.3.8.6 1.7.9 2.4.3.7.8.9 1.5.9h.1v.7c-1.1-.1-2.1-.1-3.2-.1s-2.3 0-3.5.1V92h.3c.5 0 1.5-.1 1.5-.7 0-.3-.2-.9-.5-1.7l-.9-2.7h-5.3l-1 2.4z"/><path d="M229.6 79zm-1.9 6.5h4.1l-2-6.3-2.1 6.3zm-.3.2l2.2-6.8h.1v.1-.1h.1l2.2 6.8h-4.6zm4.8 6.9c1.2 0 2.3-.1 3.4-.1s2.1 0 3.1.1v-.5c-.8 0-1.4-.3-1.6-1-.3-.7-.6-1.6-.9-2.4l-4.3-12.2c-.1-.2-.1-.4-.2-.6h-.1c-.5.3-1.4.8-2.1.9-.1.9-.6 2.1-.9 2.9l-3.7 10.8c-.4 1-1.2 1.6-2.1 1.6v.5c.8 0 1.6-.1 2.4-.1.9 0 1.8 0 2.7.1v-.5h-.1c-.8 0-1.8-.1-1.9-.9 0-.5.3-1.1.5-1.9h.1-.1l.8-2.5h5.5l.9 2.8c.3.8.5 1.4.5 1.7 0 .7-1 .8-1.6.8h-.2v.5zm6.6.2c-1.1 0-2.1-.1-3.2-.1s-2.3 0-3.5.1h-.1v-.9h.4c.5 0 1.3-.1 1.3-.6 0-.3-.2-.9-.5-1.7l-.9-2.6h-5.2l-.7 2.4c-.2.8-.5 1.4-.5 1.8 0 .6.9.7 1.7.7h.4v.9h-.1c-.9 0-1.9-.1-2.8-.1-.8 0-1.7 0-2.5.1h-.1v-.9h.2c.9 0 1.6-.5 1.9-1.5l3.8-10.8c.3-.9.7-2 .9-3 .7-.2 1.7-.7 2.1-1 .1 0 .1-.1.2-.1s.2 0 .3.1c.1.2.1.4.2.6l4.3 12.3c.3.8.6 1.7.9 2.4.3.6.7.9 1.5.9h.2v1h-.2zm1-15.3c-1.8 0-1.8.4-2.2 2.1h-.6c.1-.7.2-1.3.3-2 .1-.7.1-1.3.1-2h.6c.2.7.8.7 1.4.7h12.1c.6 0 1.2 0 1.3-.7l.6.1c-.1.6-.2 1.3-.3 1.9-.1.6-.1 1.3-.1 1.9l-.7.3c0-.9-.2-2.3-1.7-2.3h-3.8V90c0 1.8.8 2 1.9 2h.4v.7c-.9 0-2.6-.1-3.8-.1-1.4 0-3 .1-4 .1V92h.4c1.3 0 1.9-.1 1.9-2V77.5h-3.8z"/><path d="M249.1 92.8c-.9 0-2.6-.1-3.8-.1-1.4 0-3 .1-4 .1h-.1v-.9h.5c1.3 0 1.8 0 1.8-1.9V77.6h-3.7v-.2h3.9V90c0 1.9-.8 2.1-2 2.1h-.3v.5c.9 0 2.5-.1 3.9-.1 1.2 0 2.8.1 3.7.1v-.5h-.3c-1.1 0-2-.3-2-2.1V77.4h3.9c1.6 0 1.8 1.3 1.8 2.2l.5-.2v-1.8c.1-.6.2-1.2.2-1.8l-.4-.1c-.1.7-.8.7-1.4.7h-12.2c-.6 0-1.2 0-1.4-.7h-.4c0 .6-.1 1.3-.1 1.9-.1.6-.2 1.3-.3 1.9h.5c.3-1.6.5-2.2 2.3-2.1v.2c-1.7 0-1.7.3-2.1 2.1v.1h-.9v-.1c.1-.7.2-1.3.3-2 .1-.7.1-1.3.1-2v-.1h.7v.1c.2.6.6.6 1.2.6h12.2c.6 0 1.1 0 1.2-.6v-.1h.1l.7.1v.1c-.1.6-.2 1.3-.3 1.9v2h-.1l-.8.3v-.1c-.1-.9-.2-2.2-1.6-2.2h-3.7V90c0 1.8.7 1.9 1.8 1.9h.5v.1l.1.8zm5-.8h.3c.8 0 1.7-.1 1.7-1.3V78.4c0-1.2-.9-1.3-1.7-1.3h-.3v-.7c.9 0 2.3.1 3.5.1 1.2 0 2.6-.1 3.7-.1v.6h-.3c-.8 0-1.7.1-1.7 1.3v12.3c0 1.2.9 1.3 1.7 1.3h.3v.7c-1.1 0-2.5-.1-3.7-.1-1.1 0-2.5.1-3.4.1V92z"/><path d="M261.2 92.6v-.5h-.2c-.8 0-1.8-.1-1.8-1.4V78.4c0-1.3 1-1.4 1.8-1.4h.2v-.5c-1.1 0-2.4.1-3.6.1-1.1 0-2.5-.1-3.4-.1v.5h.2c.8 0 1.8.1 1.8 1.4v12.3c0 1.3-1 1.4-1.8 1.4h-.2v.5c.9 0 2.2-.1 3.3-.1 1.2 0 2.6.1 3.7.1m.1.2c-1.1 0-2.5-.1-3.7-.1-1.1 0-2.5.1-3.4.1h-.2v-.9h.4c.8 0 1.6-.1 1.6-1.2V78.4c0-1.1-.8-1.2-1.6-1.2h-.4v-1h.1c.9 0 2.3.1 3.5.1 1.2 0 2.6-.1 3.7-.1h.1v.9h-.4c-.9 0-1.6.1-1.6 1.2v12.3c0 1.1.8 1.2 1.6 1.2h.4v.2l-.1.8zm9.7-.8c4.5 0 5.3-4 5.3-7.4 0-3.4-1.8-7.6-5.7-7.6-4.1 0-5.3 3.7-5.3 6.8 0 4.2 1.9 8.2 5.7 8.2m-.4-16c5 0 9 3.1 9 8.1 0 5.4-3.9 9-8.9 9s-8.8-3.4-8.8-8.4c.1-4.9 3.8-8.7 8.7-8.7"/><path d="M265.1 83.8c0-3.2 1.2-6.9 5.4-6.9 4 0 5.8 4.2 5.8 7.7 0 3.4-.8 7.5-5.4 7.5v-.2c4.5 0 5.2-3.9 5.2-7.3s-1.8-7.5-5.6-7.5c-4 0-5.2 3.6-5.2 6.7 0 4.2 1.9 8.1 5.6 8.1v.2c-3.8 0-5.7-4.1-5.8-8.3m-3.2.8c0-4.9 3.8-8.7 8.7-8.7v.2c-4.8 0-8.5 3.7-8.5 8.5 0 5 3.7 8.3 8.7 8.3 4.9 0 8.7-3.5 8.8-8.9 0-4.9-3.9-8-8.9-8v-.1c5 0 9.1 3.1 9.1 8.2 0 5.4-3.9 9.1-9 9.1-5.1-.1-8.9-3.5-8.9-8.6m33.5 3.5v-8.8c0-1.9-1.3-2.2-2-2.2h-.5v-.7c1.1 0 2.2.1 3.3.1 1 0 1.9-.1 2.9-.1v.6h-.4c-1 0-2.1.2-2.1 3v10.7c0 .8 0 1.6.1 2.4h-.9l-12.1-13.4v9.7c0 2 .4 2.7 2.2 2.7h.4v.7c-1 0-2-.1-3-.1-1.1 0-2.1.1-3.2.1V92h.3c1.6 0 2.1-1.1 2.1-3v-9.9c0-1.3-1.1-2.1-2.1-2.1h-.3v-.7c.9 0 1.8.1 2.7.1.7 0 1.4-.1 2.1-.1l10.5 11.8z"/><path d="M295.3 88zm.1.1zm.4 4.8h.8c-.1-.7-.1-1.5-.1-2.3V80c0-2.8 1.2-3.1 2.2-3.1h.3v-.5c-.9 0-1.9.1-2.8.1-1.1 0-2.1-.1-3.2-.1v.5h.4c.7 0 2.1.3 2.1 2.3v8.9l-.1.1L285 76.4c-.7 0-1.4.1-2.1.1-.9 0-1.7-.1-2.6-.1v.5h.2c1.1 0 2.2.8 2.2 2.2V89c0 1.9-.5 3.1-2.2 3.1h-.2v.5c1 0 2.1-.1 3.1-.1s1.9.1 2.9.1v-.5h-.3c-1.8 0-2.3-.8-2.3-2.8v-9.9l12.1 13.5zm.9.2h-1l-11.9-13.2v9.4c0 2 .3 2.6 2.1 2.6h.5v.9h-.1c-1 0-2-.1-3-.1-1.1 0-2.1.1-3.2.1h-.1v-.9h.4c1.5 0 2-1 2-2.9v-9.9c0-1.2-1-2-2-2h-.4v-.9h.1c.9 0 1.8.1 2.7.1.7 0 1.4-.1 2.2-.1l10.3 11.6v-8.6c0-1.9-1.3-2.1-1.9-2.1h-.6v-.9h.1c1.1 0 2.2.1 3.3.1 1 0 1.9-.1 2.9-.1h.1v.9h-.6c-1 0-2 .1-2 2.9v10.7c0 .8 0 1.6.1 2.4v.1zm9.5-14.1l-2.2 6.6h4.4l-2.2-6.6zm-3.4 10.3c-.2.8-.5 1.4-.5 1.8 0 .7 1 .8 1.8.8h.3v.7c-.9-.1-1.9-.1-2.8-.1-.8 0-1.7 0-2.5.1V92h.1c.9 0 1.7-.5 2-1.5l3.8-10.7c.3-.9.7-2 .9-2.9.8-.3 1.7-.7 2.1-1h.2c.1 0 .1 0 .2.1.1.2.1.4.2.6l4.3 12.3c.3.8.6 1.7.9 2.4.3.7.8.9 1.5.9h.1v.7c-1.1-.1-2.1-.1-3.2-.1s-2.3 0-3.5.1V92h.3c.5 0 1.5-.1 1.5-.7 0-.3-.2-.9-.5-1.7l-.9-2.7h-5.3l-1 2.4z"/><path d="M306.1 79zm-2 6.5h4.1l-2-6.3-2.1 6.3zm-.2.2l2.2-6.8h.2v.1-.1h.1l2.2 6.8h-4.7zm4.7 6.9c1.2 0 2.3-.1 3.4-.1s2.1 0 3.1.1v-.5c-.8 0-1.3-.3-1.6-1-.3-.7-.6-1.6-.9-2.4l-4.3-12.3c-.1-.2-.1-.4-.2-.6h-.1c-.5.3-1.4.8-2.1.9-.1.9-.6 2.1-.9 2.9l-3.8 10.8c-.4 1-1.2 1.6-2.1 1.6v.5c.8 0 1.6-.1 2.4-.1.9 0 1.8 0 2.7.1V92h-.2c-.8 0-1.8-.1-1.9-.9 0-.5.3-1.1.5-1.9h.1-.1l.8-2.5h5.5l.9 2.8c.3.8.5 1.4.5 1.7 0 .7-1 .8-1.6.8h-.2v.6zm6.7.2c-1.1 0-2.1-.1-3.2-.1s-2.3.1-3.5.1h-.1v-.9h.4c.5 0 1.4-.1 1.4-.6 0-.3-.2-.9-.5-1.7l-.9-2.6h-5.2l-.7 2.4c-.2.8-.5 1.4-.5 1.8 0 .6.9.7 1.7.7h.4v.9h-.1c-.9 0-1.9-.1-2.8-.1-.8 0-1.7.1-2.5.1h-.1v-.9h.2c.9 0 1.6-.5 1.9-1.5l3.7-10.8c.3-.9.7-2 .9-3 .7-.3 1.7-.7 2.1-1 .1 0 .1-.1.2-.1s.2 0 .3.1c.1.2.1.4.2.6l4.3 12.3c.3.8.6 1.7.9 2.4.3.6.7.9 1.5.9h.2v1h-.2zm5.9-2.4c0 .9.7 1.2 1.4 1.3 1 .1 2 .1 3.1 0 1-.1 1.8-.7 2.2-1.3.4-.5.6-1.2.7-1.7h.7c-.3 1.3-.6 2.6-.9 4-2.1 0-4.1-.1-6.2-.1-2.1 0-4.1.1-6.2.1V92h.3c.8 0 1.8-.1 1.8-1.6v-12c0-1.2-.9-1.3-1.8-1.3h-.3v-.7c1.2 0 2.5.1 3.7.1 1.2 0 2.4-.1 3.6-.1v.6h-.6c-.9 0-1.6 0-1.6 1.3v12.1z"/><path d="M328.4 92.6c.3-1.3.6-2.5.8-3.8h-.5c-.1.5-.4 1.1-.7 1.7-.4.6-1.3 1.2-2.3 1.3-.6.1-1.2.1-1.8.1-.5 0-.9 0-1.3-.1-.8-.1-1.5-.4-1.5-1.4V78.3c0-1.3.8-1.4 1.7-1.4h.5v-.5c-1.2 0-2.3.1-3.5.1-1.2 0-2.4-.1-3.6-.1v.5h.2c.8 0 1.9.1 1.9 1.4v12c0 1.5-1 1.7-1.9 1.7h-.2v.5c2 0 4.1-.1 6.1-.1 2 .1 4.1.2 6.1.2m.1.2c-2.1 0-4.1-.1-6.2-.1-2.1 0-4.1.1-6.2.1h-.1v-.9h.4c.8 0 1.7-.1 1.7-1.5v-12c0-1.1-.8-1.2-1.7-1.2h-.4v-1h.1c1.2 0 2.5.1 3.7.1 1.2 0 2.4-.1 3.6-.1h.1v.9h-.7c-.9 0-1.5 0-1.5 1.2v12.1c0 .9.6 1.1 1.3 1.2h1.3c.6 0 1.2 0 1.8-.1 1-.1 1.8-.7 2.2-1.2.4-.5.6-1.1.7-1.7v-.1h.9v.1c-.3 1.5-.6 2.8-1 4.2z"/><path class="st0" d="M76.1 105.9c22.4.1 42.8-18.2 42.8-40.6 0-24.4-20.4-41.3-42.8-41.3H56.8c-22.6 0-41.3 16.9-41.3 41.3 0 22.3 18.6 40.7 41.3 40.6h19.3z"/><path class="st1" d="M65.4 87.1V42.8c8.9 3.4 15.2 12 15.3 22.2 0 10.1-6.4 18.7-15.3 22.1M33.2 64.9c0-10.1 6.3-18.7 15.2-22.2V87c-8.9-3.3-15.2-12-15.2-22.1m23.7-37.5c-20.7 0-37.5 16.8-37.5 37.5s16.8 37.5 37.5 37.5 37.5-16.8 37.5-37.5-16.8-37.4-37.5-37.5"/><path d="M136.2 61.9c0 3.3 2.4 3.7 4.5 3.7 9.3 0 12.4-7 12.4-13.4 0-8-5.2-13.9-13.5-13.9-1.8 0-2.6.1-3.4.2v23.4zM132 41.7c0-3.9-2-3.6-4-3.7v-1.1c1.7.1 3.4.1 5.1.1 1.8 0 4.3-.1 7.5-.1 11.1 0 17.2 7.4 17.2 15.1 0 4.3-2.5 15-17.7 15-2.2 0-4.2-.1-6.2-.1-1.9 0-3.8 0-5.8.1v-1.1c2.6-.3 3.8-.3 4-3.3V41.7zm31.9-1.1c-1.1 0-2.1-1-2.1-2.2 0-1.1 1-2.1 2.1-2.1s2.1.9 2.1 2.1c0 1.3-.9 2.2-2.1 2.2m-4.6 25.2h.8c1.2 0 2.1 0 2.1-1.4V52.7c0-1.9-.6-2.2-2.2-3V49c2-.6 4.4-1.4 4.6-1.5.3-.2.6-.2.8-.2.2 0 .3.3.3.6v16.5c0 1.4.9 1.4 2.2 1.4h.7V67c-1.5 0-3-.1-4.5-.1-1.6 0-3.1 0-4.7.1v-1.2zM172.6 53c0-1.6-.5-2-2.5-2.8v-.8c1.8-.6 3.6-1.2 5.7-2.1.1 0 .3.1.3.4v2.8c2.5-1.8 4.6-3.2 7.5-3.2 3.7 0 4.9 2.7 4.9 6v11.1c0 1.4.9 1.4 2.2 1.4h.8V67c-1.5 0-3-.1-4.6-.1-1.6 0-3.1 0-4.7.1v-1.1h.8c1.2 0 2.1 0 2.1-1.4V53.3c0-2.5-1.5-3.7-4-3.7-1.4 0-3.6 1.1-5 2.1v12.7c0 1.4 1 1.4 2.2 1.4h.8V67c-1.5 0-3-.1-4.6-.1-1.5 0-3.1 0-4.6.1v-1.1h.8c1.2 0 2.1 0 2.1-1.4V53zm29.7.7c1.1 0 1.2-.6 1.2-1.1 0-2.2-1.3-4-3.7-4-2.6 0-4.4 1.9-4.9 5h7.4zm-7.6 1.4c-.1.4-.1 1 0 2.5.3 4.1 2.9 7.4 6.3 7.4 2.4 0 4.2-1.3 5.8-2.9l.6.6c-2 2.6-4.4 4.9-8 4.9-6.8 0-8.2-6.6-8.2-9.4 0-8.4 5.7-10.9 8.7-10.9 3.5 0 7.2 2.2 7.3 6.8v.8l-.4.3h-12.1zm13.5 10.7h1.2c1.2 0 2.1 0 2.1-1.4V52.3c0-1.3-1.6-1.6-2.2-1.9v-.6c3.1-1.3 4.9-2.5 5.3-2.5.3 0 .4.1.4.6v3.9h.1c1.1-1.7 2.9-4.4 5.5-4.4 1.1 0 2.5.7 2.5 2.3 0 1.2-.8 2.2-2 2.2-1.3 0-1.3-1-2.8-1-.7 0-3.1 1-3.1 3.6v10.1c0 1.4.9 1.4 2.1 1.4h2.4v1c-2.4 0-4.2-.1-6-.1-1.8 0-3.6 0-5.1.1v-1.2zm16.6-4.8c.6 2.8 2.3 5.3 5.4 5.3 2.5 0 3.5-1.5 3.5-3.1 0-5.1-9.4-3.4-9.4-10.4 0-2.4 1.9-5.5 6.7-5.5 1.4 0 3.2.4 4.9 1.3l.3 4.4h-1c-.4-2.7-1.9-4.3-4.7-4.3-1.7 0-3.4 1-3.4 2.8 0 5 10 3.5 10 10.2 0 2.8-2.3 5.9-7.4 5.9-1.7 0-3.7-.6-5.3-1.5l-.5-5 .9-.1zM276 44.7h-1.1c-.8-5-4.4-7.1-9.2-7.1-5 0-12.1 3.3-12.1 13.6 0 8.7 6.2 14.9 12.8 14.9 4.3 0 7.8-2.9 8.7-7.4l1 .3-1 6.3c-1.8 1.1-6.7 2.3-9.5 2.3-10.1 0-16.4-6.5-16.4-16.2 0-8.8 7.9-15.2 16.3-15.2 3.5 0 6.8 1.1 10.2 2.3l.3 6.2zm1.6 21.1h.8c1.2 0 2.1 0 2.1-1.4v-24c0-2.8-.6-2.9-2.3-3.4v-.7c1.7-.6 3.5-1.3 4.4-1.9.5-.3.8-.5.9-.5.3 0 .3.3.3.6v29.7c0 1.4.9 1.4 2.2 1.4h.7V67c-1.5 0-3-.1-4.5-.1s-3.1 0-4.7.1v-1.2zm27.6-1.2c0 .8.5.8 1.2.8h1.7v.9c-1.9.2-5.4 1.1-6.2 1.3l-.2-.1V64c-2.6 2.1-4.6 3.6-7.6 3.6-2.3 0-4.7-1.5-4.7-5.1v-11c0-1.1-.2-2.2-2.6-2.4v-.8c1.6 0 5-.3 5.6-.3.5 0 .5.3.5 1.2v11.1c0 1.3 0 5 3.7 5 1.5 0 3.4-1.1 5.2-2.6V51.1c0-.9-2.1-1.3-3.6-1.8v-.8c3.9-.3 6.3-.6 6.7-.6.3 0 .3.3.3.8v15.9zm8.6-2.5c0 1.6 1.5 4.4 4.4 4.4 4.6 0 6.5-4.5 6.5-8.4 0-4.6-3.5-8.5-6.9-8.5-1.6 0-2.9 1-4.1 2v10.5zm0-11.7c1.7-1.5 4-3.1 6.4-3.1 5 0 8 4.4 8 9 0 5.6-4.1 11.3-10.3 11.3-3.2 0-4.9-1-6-1.5l-1.3 1-.9-.5c.4-2.5.6-5 .6-7.7V40.4c0-2.8-.6-2.9-2.3-3.4v-.7c1.7-.6 3.5-1.3 4.4-1.9.5-.3.8-.5.9-.5.3 0 .3.3.3.6v15.9zM128 92h.3c.8 0 1.7-.1 1.7-1.3V78.4c0-1.2-.9-1.3-1.7-1.3h-.3v-.7c.9 0 2.3.1 3.5.1 1.2 0 2.6-.1 3.7-.1v.6h-.3c-.8 0-1.7.1-1.7 1.3v12.3c0 1.2.9 1.3 1.7 1.3h.3v.7c-1.1 0-2.5-.1-3.7-.1-1.1 0-2.5.1-3.4.1V92z"/><path d="M135.1 92.6v-.5h-.2c-.8 0-1.8-.1-1.8-1.4V78.4c0-1.3 1-1.4 1.8-1.4h.2v-.5c-1.1 0-2.4.1-3.6.1-1.1 0-2.5-.1-3.4-.1v.5h.2c.8 0 1.8.1 1.8 1.4v12.3c0 1.3-1 1.4-1.8 1.4h-.2v.5c.9 0 2.2-.1 3.3-.1 1.2 0 2.5.1 3.7.1m.1.2c-1.1 0-2.5-.1-3.7-.1-1.1 0-2.5.1-3.4.1h-.1v-.9h.4c.9 0 1.6-.1 1.6-1.2V78.4c0-1.1-.8-1.2-1.6-1.2h-.4v-1h.1c.9 0 2.3.1 3.5.1 1.2 0 2.6-.1 3.7-.1h.1v.9h-.4c-.9 0-1.6.1-1.6 1.2v12.3c0 1.1.8 1.2 1.6 1.2h.4v1h-.2zm16-4.7v-8.8c0-1.9-1.3-2.2-2-2.2h-.5v-.7c1.1 0 2.2.1 3.3.1 1 0 1.9-.1 2.9-.1v.6h-.3c-1 0-2.1.2-2.1 3v10.7c0 .8 0 1.6.1 2.4h-.9l-12.1-13.4v9.7c0 2 .4 2.7 2.2 2.7h.4v.7c-1 0-2-.1-3-.1-1.1 0-2.1.1-3.2.1V92h.3c1.6 0 2.1-1.1 2.1-3v-9.9c0-1.3-1.1-2.1-2.1-2.1h-.3v-.7c.9 0 1.8.1 2.7.1.7 0 1.4-.1 2.1-.1l10.4 11.8z"/><path d="M151.2 88zm0 .1zm.5 4.8h.8c-.1-.7-.1-1.5-.1-2.3V80c0-2.8 1.2-3.1 2.2-3.1h.2v-.5c-.9 0-1.8.1-2.8.1-1.1 0-2.1-.1-3.2-.1v.5h.4c.7 0 2.1.3 2.1 2.3v8.9l-.1.1-10.4-11.8c-.7 0-1.4.1-2.1.1-.9 0-1.7-.1-2.6-.1v.5h.2c1.1 0 2.2.8 2.2 2.2V89c0 1.9-.5 3.1-2.2 3.1h-.2v.5c1 0 2.1-.1 3.1-.1s2 .1 2.9.1v-.5h-.3c-1.8 0-2.3-.8-2.3-2.8v-9.9l12.2 13.5zm.9.2h-1l-11.9-13.3v9.4c0 2 .3 2.6 2.1 2.6h.5v1h-.1c-1 0-2-.1-3-.1s-2.1.1-3.2.1h-.1v-.9h.4c1.5 0 2-1 2-2.9v-9.9c0-1.2-1-2-2-2h-.4v-.9h.1c.9 0 1.8.1 2.7.1.7 0 1.4-.1 2.2-.1l10.3 11.6v-8.6c0-1.9-1.3-2.1-1.9-2.1h-.6v-.9h.1c1.1 0 2.2.1 3.3.1 1 0 1.9-.1 2.9-.1h.1v.9h-.4c-1 0-2 .1-2 2.9v10.7c0 .8 0 1.6.1 2.3v.1h-.2zm5.8-15.6c-1.8 0-1.8.4-2.2 2.1h-.7c.1-.7.2-1.3.3-2 .1-.7.1-1.3.1-2h.6c.2.7.8.7 1.4.7H170c.6 0 1.2 0 1.3-.7l.6.1c-.1.6-.2 1.3-.3 1.9v1.9l-.7.3c0-.9-.2-2.3-1.7-2.3h-3.8V90c0 1.8.8 2 1.9 2h.4v.7c-.9 0-2.6-.1-3.8-.1-1.4 0-3 .1-4 .1V92h.4c1.3 0 1.9-.1 1.9-2V77.5h-3.8z"/><path d="M167.6 92.8c-.9 0-2.6-.1-3.8-.1-1.4 0-3 .1-4 .1h-.1v-.9h.5c1.3 0 1.8 0 1.8-1.9V77.6h-3.7v-.2h3.9V90c0 1.9-.8 2.1-2 2.1h-.2v.5c.9 0 2.5-.1 3.9-.1 1.2 0 2.8.1 3.7.1v-.5h-.3c-1.1 0-2-.3-2-2.1V77.4h3.9c1.6 0 1.8 1.3 1.8 2.2l.5-.2v-1.8c.1-.6.2-1.2.2-1.8l-.4-.1c-.1.7-.8.7-1.4.7h-12.2c-.5 0-1.2 0-1.4-.7h-.4c0 .6 0 1.3-.1 1.9-.1.6-.2 1.3-.3 1.9h.5c.3-1.6.5-2.2 2.3-2.1v.2c-1.7 0-1.7.3-2.1 2.1v.1h-.9v-.1c.1-.7.2-1.3.3-2 .1-.6.1-1.3.1-2v-.1h.7v.1c.2.6.6.6 1.2.6H170c.7 0 1.1 0 1.2-.6v-.1h.1l.7.1v.1c-.1.6-.2 1.3-.3 1.9v2h-.1l-.8.3v-.1c-.1-.9-.2-2.2-1.6-2.2h-3.7V90c0 1.8.7 1.9 1.8 1.9h.5v.9h-.2zm5-.8h.3c.8 0 1.7-.1 1.7-1.3V78.4c0-1.2-.9-1.3-1.7-1.3h-.3v-.7c1.4 0 3.9.1 5.8.1 2 0 4.4-.1 6-.1 0 1 0 2.6.1 3.6l-.7.2c-.1-1.5-.4-2.7-2.9-2.7h-3.3v6.1h2.8c1.4 0 1.7-.8 1.9-2.1h.7c0 .9-.1 1.8-.1 2.7 0 .9 0 1.8.1 2.7l-.7.1c-.1-1.4-.2-2.3-1.8-2.3h-2.8v5.5c0 1.5 1.4 1.5 2.9 1.5 2.8 0 4.1-.2 4.8-2.9l.7.2c-.3 1.2-.6 2.5-.8 3.7-1.5 0-4.2-.1-6.3-.1-2.1 0-4.9.1-6.2.1V92z"/><path d="M185 92.6c.2-1.2.5-2.4.8-3.5l-.5-.1c-.7 2.6-2.1 2.9-4.8 2.8-1.5 0-3 0-3-1.6v-5.6h2.9c1.6 0 1.8 1 1.9 2.3l.5-.1c0-.9-.1-1.7-.1-2.6 0-.9 0-1.8.1-2.6h-.5c-.1 1.2-.5 2.1-1.9 2.1h-2.9v-6.3h3.4c2.4 0 2.8 1.2 2.9 2.7l.5-.1c0-.7-.1-1.5-.1-2.3v-1.1c-1.6 0-4 .1-5.9.1-1.9 0-4.3-.1-5.7-.1v.5h.2c.8 0 1.8.1 1.8 1.4v12.3c0 1.3-1 1.4-1.8 1.4h-.2v.5c1.4 0 4.1-.1 6.1-.1 2.2-.1 4.8 0 6.3 0m.1.2c-1.5 0-4.2-.1-6.3-.1-2.1 0-4.9.1-6.2.1h-.1v-.9h.4c.8 0 1.6-.1 1.6-1.2V78.4c0-1.1-.8-1.2-1.6-1.2h-.4v-1h.1c1.4 0 3.9.1 5.8.1 2 0 4.4-.1 6-.1h.1v1.3c0 .8 0 1.7.1 2.4v.1h-.1l-.8.2v-.1c-.1-1.5-.3-2.6-2.8-2.6h-3.2v5.9h2.7c1.3 0 1.6-.7 1.8-2v-.1h.9v.1c0 .9-.1 1.8-.1 2.7 0 .9 0 1.8.1 2.7v.1h-.1l-.8.2V87c-.2-1.4-.2-2.2-1.7-2.2h-2.7v5.4c0 1.4 1.2 1.4 2.8 1.4 2.8 0 4-.2 4.7-2.8v-.1h.1l.8.2v.1c-.3 1.2-.6 2.5-.8 3.7l-.3.1zm7-8.5h1.1c2.3 0 3.6-.9 3.6-3.7 0-2.1-1.3-3.4-3.4-3.4-.7 0-1 .1-1.3.1v7zm-3-5.5c0-1.7-.9-1.8-1.7-1.8h-.4v-.7c.8 0 2.2.1 3.6.1s2.5-.1 3.8-.1c3 0 5.6.8 5.6 4.1 0 2.1-1.4 3.4-3.3 4.1l4 6c.7 1 1.1 1.3 2.3 1.4v.7c-.8 0-1.5-.1-2.3-.1-.7 0-1.5.1-2.2.1-1.8-2.4-3.4-4.9-4.9-7.6h-1.5v5c0 1.8.8 1.9 1.9 1.9h.4v.7c-1.3 0-2.7-.1-4-.1-1.1 0-2.2.1-3.4.1V92h.4c.9 0 1.7-.4 1.7-1.3V78.8z"/><path d="M193.2 84.2c2.3 0 3.5-.8 3.5-3.5 0-2-1.3-3.3-3.3-3.3-.6 0-.9.1-1.2.1v6.8h1zm-1.1.2h-.1v-7.2h.1c.3 0 .6-.1 1.3-.1 2.1 0 3.5 1.4 3.5 3.5 0 2.8-1.3 3.7-3.7 3.8h-1.1zm0 .6h1.6v.1c1.5 2.7 3.1 5.2 4.8 7.5.7 0 1.5-.1 2.2-.1.7 0 1.5.1 2.2.1v-.5c-1.1-.1-1.6-.5-2.3-1.4l-4.1-6.1h.1c1.8-.7 3.2-2 3.2-4 0-3.2-2.5-4-5.5-4-1.2 0-2.4.1-3.8.1s-2.8-.1-3.5-.1v.5h.3c.7 0 1.8.1 1.8 1.9v11.9c0 .9-.9 1.4-1.8 1.4h-.3v.5c1.1 0 2.2-.1 3.3-.1 1.3 0 2.6.1 3.9.1v-.5h-.2c-1.1 0-2-.1-2-2V85h.1zm10.9 7.8c-.8 0-1.5-.1-2.3-.1-.7 0-1.5.1-2.3.1-1.8-2.4-3.3-4.9-4.9-7.6h-1.4v4.9c0 1.8.7 1.7 1.8 1.8h.5v.9h-.1c-1.3 0-2.7-.1-4-.1-1.1 0-2.2.1-3.4.1h-.1v-.9h.5c.8 0 1.6-.4 1.6-1.2V78.8c0-1.7-.8-1.7-1.6-1.7h-.5v-.9h.1c.8 0 2.2.1 3.6.1s2.5-.1 3.8-.1c3 0 5.7.8 5.7 4.2 0 2.1-1.4 3.4-3.2 4.2l3.9 5.9c.7 1 1.1 1.2 2.2 1.4h.1v.9zm15.9-4.7v-8.8c0-1.9-1.3-2.2-2-2.2h-.5v-.7c1.1 0 2.2.1 3.3.1 1 0 1.9-.1 2.9-.1v.6h-.4c-1 0-2.1.2-2.1 3v10.7c0 .8 0 1.6.1 2.4h-.9l-12.1-13.4v9.7c0 2 .4 2.7 2.2 2.7h.4v.7c-1 0-2-.1-3-.1-1.1 0-2.1.1-3.2.1V92h.3c1.6 0 2.1-1.1 2.1-3v-9.9c0-1.3-1.1-2.1-2.1-2.1h-.3v-.7c.9 0 1.8.1 2.7.1.7 0 1.4-.1 2.1-.1l10.5 11.8z"/><path d="M218.8 88zm.1.1zm.5 4.8h.8c-.1-.7-.1-1.5-.1-2.3V80c0-2.8 1.2-3.1 2.2-3.1h.2v-.5c-.9 0-1.8.1-2.8.1-1.1 0-2.1-.1-3.2-.1v.5h.4c.7 0 2.1.3 2.1 2.3v8.9l-.1.1-10.4-11.8c-.7 0-1.4.1-2.1.1-.9 0-1.7-.1-2.6-.1v.5h.2c1.1 0 2.2.8 2.2 2.2V89c0 1.9-.5 3.1-2.2 3.1h-.2v.5c1 0 2.1-.1 3.1-.1s2 .1 2.9.1v-.5h-.3c-1.8 0-2.3-.8-2.3-2.8v-9.9l12.2 13.5zm.9.2h-1l-11.9-13.3v9.4c0 2 .3 2.6 2.1 2.6h.5v1h-.1c-1 0-2-.1-3-.1s-2.1.1-3.2.1h-.1v-.9h.4c1.5 0 2-1 2-2.9v-9.9c0-1.2-1-2-2-2h-.4v-.9h.1c.9 0 1.8.1 2.7.1.7 0 1.4-.1 2.2-.1l10.3 11.6v-8.6c0-1.9-1.3-2.1-1.9-2.1h-.6v-.9h.1c1.1 0 2.2.1 3.3.1 1 0 1.9-.1 2.9-.1h.1v.9h-.4c-1 0-2 .1-2 2.9v10.7c0 .8 0 1.6.1 2.4v.1h-.2zm9.4-14.1l-2.2 6.6h4.4l-2.2-6.6zm-3.4 10.3c-.2.8-.5 1.4-.5 1.8 0 .7 1 .8 1.8.8h.3v.7c-.9-.1-1.9-.1-2.8-.1-.8 0-1.7 0-2.5.1V92h.1c.9 0 1.7-.5 2-1.5l3.8-10.7c.3-.9.7-2 .9-2.9.7-.3 1.7-.7 2.1-1h.2c.1 0 .1 0 .2.1.1.2.1.4.2.6l4.3 12.3c.3.8.6 1.7.9 2.4.3.7.8.9 1.5.9h.1v.7c-1.1-.1-2.1-.1-3.2-.1s-2.3 0-3.5.1V92h.3c.5 0 1.5-.1 1.5-.7 0-.3-.2-.9-.5-1.7l-.9-2.7h-5.3l-1 2.4z"/><path d="M229.6 79zm-1.9 6.5h4.1l-2-6.3-2.1 6.3zm-.3.2l2.2-6.8h.1v.1-.1h.1l2.2 6.8h-4.6zm4.8 6.9c1.2 0 2.3-.1 3.4-.1s2.1 0 3.1.1v-.5c-.8 0-1.4-.3-1.6-1-.3-.7-.6-1.6-.9-2.4l-4.3-12.2c-.1-.2-.1-.4-.2-.6h-.1c-.5.3-1.4.8-2.1.9-.1.9-.6 2.1-.9 2.9l-3.7 10.8c-.4 1-1.2 1.6-2.1 1.6v.5c.8 0 1.6-.1 2.4-.1.9 0 1.8 0 2.7.1v-.5h-.1c-.8 0-1.8-.1-1.9-.9 0-.5.3-1.1.5-1.9h.1-.1l.8-2.5h5.5l.9 2.8c.3.8.5 1.4.5 1.7 0 .7-1 .8-1.6.8h-.2v.5zm6.6.2c-1.1 0-2.1-.1-3.2-.1s-2.3 0-3.5.1h-.1v-.9h.4c.5 0 1.3-.1 1.3-.6 0-.3-.2-.9-.5-1.7l-.9-2.6h-5.2l-.7 2.4c-.2.8-.5 1.4-.5 1.8 0 .6.9.7 1.7.7h.4v.9h-.1c-.9 0-1.9-.1-2.8-.1-.8 0-1.7 0-2.5.1h-.1v-.9h.2c.9 0 1.6-.5 1.9-1.5l3.8-10.8c.3-.9.7-2 .9-3 .7-.2 1.7-.7 2.1-1 .1 0 .1-.1.2-.1s.2 0 .3.1c.1.2.1.4.2.6l4.3 12.3c.3.8.6 1.7.9 2.4.3.6.7.9 1.5.9h.2v1h-.2zm1-15.3c-1.8 0-1.8.4-2.2 2.1h-.6c.1-.7.2-1.3.3-2 .1-.7.1-1.3.1-2h.6c.2.7.8.7 1.4.7h12.1c.6 0 1.2 0 1.3-.7l.6.1c-.1.6-.2 1.3-.3 1.9-.1.6-.1 1.3-.1 1.9l-.7.3c0-.9-.2-2.3-1.7-2.3h-3.8V90c0 1.8.8 2 1.9 2h.4v.7c-.9 0-2.6-.1-3.8-.1-1.4 0-3 .1-4 .1V92h.4c1.3 0 1.9-.1 1.9-2V77.5h-3.8z"/><path d="M249.1 92.8c-.9 0-2.6-.1-3.8-.1-1.4 0-3 .1-4 .1h-.1v-.9h.5c1.3 0 1.8 0 1.8-1.9V77.6h-3.7v-.2h3.9V90c0 1.9-.8 2.1-2 2.1h-.3v.5c.9 0 2.5-.1 3.9-.1 1.2 0 2.8.1 3.7.1v-.5h-.3c-1.1 0-2-.3-2-2.1V77.4h3.9c1.6 0 1.8 1.3 1.8 2.2l.5-.2v-1.8c.1-.6.2-1.2.2-1.8l-.4-.1c-.1.7-.8.7-1.4.7h-12.2c-.6 0-1.2 0-1.4-.7h-.4c0 .6-.1 1.3-.1 1.9-.1.6-.2 1.3-.3 1.9h.5c.3-1.6.5-2.2 2.3-2.1v.2c-1.7 0-1.7.3-2.1 2.1v.1h-.9v-.1c.1-.7.2-1.3.3-2 .1-.7.1-1.3.1-2v-.1h.7v.1c.2.6.6.6 1.2.6h12.2c.6 0 1.1 0 1.2-.6v-.1h.1l.7.1v.1c-.1.6-.2 1.3-.3 1.9v2h-.1l-.8.3v-.1c-.1-.9-.2-2.2-1.6-2.2h-3.7V90c0 1.8.7 1.9 1.8 1.9h.5v.1l.1.8zm5-.8h.3c.8 0 1.7-.1 1.7-1.3V78.4c0-1.2-.9-1.3-1.7-1.3h-.3v-.7c.9 0 2.3.1 3.5.1 1.2 0 2.6-.1 3.7-.1v.6h-.3c-.8 0-1.7.1-1.7 1.3v12.3c0 1.2.9 1.3 1.7 1.3h.3v.7c-1.1 0-2.5-.1-3.7-.1-1.1 0-2.5.1-3.4.1V92z"/><path d="M261.2 92.6v-.5h-.2c-.8 0-1.8-.1-1.8-1.4V78.4c0-1.3 1-1.4 1.8-1.4h.2v-.5c-1.1 0-2.4.1-3.6.1-1.1 0-2.5-.1-3.4-.1v.5h.2c.8 0 1.8.1 1.8 1.4v12.3c0 1.3-1 1.4-1.8 1.4h-.2v.5c.9 0 2.2-.1 3.3-.1 1.2 0 2.6.1 3.7.1m.1.2c-1.1 0-2.5-.1-3.7-.1-1.1 0-2.5.1-3.4.1h-.2v-.9h.4c.8 0 1.6-.1 1.6-1.2V78.4c0-1.1-.8-1.2-1.6-1.2h-.4v-1h.1c.9 0 2.3.1 3.5.1 1.2 0 2.6-.1 3.7-.1h.1v.9h-.4c-.9 0-1.6.1-1.6 1.2v12.3c0 1.1.8 1.2 1.6 1.2h.4v.2l-.1.8zm9.7-.8c4.5 0 5.3-4 5.3-7.4 0-3.4-1.8-7.6-5.7-7.6-4.1 0-5.3 3.7-5.3 6.8 0 4.2 1.9 8.2 5.7 8.2m-.4-16c5 0 9 3.1 9 8.1 0 5.4-3.9 9-8.9 9s-8.8-3.4-8.8-8.4c.1-4.9 3.8-8.7 8.7-8.7"/><path d="M265.1 83.8c0-3.2 1.2-6.9 5.4-6.9 4 0 5.8 4.2 5.8 7.7 0 3.4-.8 7.5-5.4 7.5v-.2c4.5 0 5.2-3.9 5.2-7.3s-1.8-7.5-5.6-7.5c-4 0-5.2 3.6-5.2 6.7 0 4.2 1.9 8.1 5.6 8.1v.2c-3.8 0-5.7-4.1-5.8-8.3m-3.2.8c0-4.9 3.8-8.7 8.7-8.7v.2c-4.8 0-8.5 3.7-8.5 8.5 0 5 3.7 8.3 8.7 8.3 4.9 0 8.7-3.5 8.8-8.9 0-4.9-3.9-8-8.9-8v-.1c5 0 9.1 3.1 9.1 8.2 0 5.4-3.9 9.1-9 9.1-5.1-.1-8.9-3.5-8.9-8.6m33.5 3.5v-8.8c0-1.9-1.3-2.2-2-2.2h-.5v-.7c1.1 0 2.2.1 3.3.1 1 0 1.9-.1 2.9-.1v.6h-.4c-1 0-2.1.2-2.1 3v10.7c0 .8 0 1.6.1 2.4h-.9l-12.1-13.4v9.7c0 2 .4 2.7 2.2 2.7h.4v.7c-1 0-2-.1-3-.1-1.1 0-2.1.1-3.2.1V92h.3c1.6 0 2.1-1.1 2.1-3v-9.9c0-1.3-1.1-2.1-2.1-2.1h-.3v-.7c.9 0 1.8.1 2.7.1.7 0 1.4-.1 2.1-.1l10.5 11.8z"/><path d="M295.3 88zm.1.1zm.4 4.8h.8c-.1-.7-.1-1.5-.1-2.3V80c0-2.8 1.2-3.1 2.2-3.1h.3v-.5c-.9 0-1.9.1-2.8.1-1.1 0-2.1-.1-3.2-.1v.5h.4c.7 0 2.1.3 2.1 2.3v8.9l-.1.1L285 76.4c-.7 0-1.4.1-2.1.1-.9 0-1.7-.1-2.6-.1v.5h.2c1.1 0 2.2.8 2.2 2.2V89c0 1.9-.5 3.1-2.2 3.1h-.2v.5c1 0 2.1-.1 3.1-.1s1.9.1 2.9.1v-.5h-.3c-1.8 0-2.3-.8-2.3-2.8v-9.9l12.1 13.5zm.9.2h-1l-11.9-13.2v9.4c0 2 .3 2.6 2.1 2.6h.5v.9h-.1c-1 0-2-.1-3-.1-1.1 0-2.1.1-3.2.1h-.1v-.9h.4c1.5 0 2-1 2-2.9v-9.9c0-1.2-1-2-2-2h-.4v-.9h.1c.9 0 1.8.1 2.7.1.7 0 1.4-.1 2.2-.1l10.3 11.6v-8.6c0-1.9-1.3-2.1-1.9-2.1h-.6v-.9h.1c1.1 0 2.2.1 3.3.1 1 0 1.9-.1 2.9-.1h.1v.9h-.6c-1 0-2 .1-2 2.9v10.7c0 .8 0 1.6.1 2.4v.1zm9.5-14.1l-2.2 6.6h4.4l-2.2-6.6zm-3.4 10.3c-.2.8-.5 1.4-.5 1.8 0 .7 1 .8 1.8.8h.3v.7c-.9-.1-1.9-.1-2.8-.1-.8 0-1.7 0-2.5.1V92h.1c.9 0 1.7-.5 2-1.5l3.8-10.7c.3-.9.7-2 .9-2.9.8-.3 1.7-.7 2.1-1h.2c.1 0 .1 0 .2.1.1.2.1.4.2.6l4.3 12.3c.3.8.6 1.7.9 2.4.3.7.8.9 1.5.9h.1v.7c-1.1-.1-2.1-.1-3.2-.1s-2.3 0-3.5.1V92h.3c.5 0 1.5-.1 1.5-.7 0-.3-.2-.9-.5-1.7l-.9-2.7h-5.3l-1 2.4z"/><path d="M306.1 79zm-2 6.5h4.1l-2-6.3-2.1 6.3zm-.2.2l2.2-6.8h.2v.1-.1h.1l2.2 6.8h-4.7zm4.7 6.9c1.2 0 2.3-.1 3.4-.1s2.1 0 3.1.1v-.5c-.8 0-1.3-.3-1.6-1-.3-.7-.6-1.6-.9-2.4l-4.3-12.3c-.1-.2-.1-.4-.2-.6h-.1c-.5.3-1.4.8-2.1.9-.1.9-.6 2.1-.9 2.9l-3.8 10.8c-.4 1-1.2 1.6-2.1 1.6v.5c.8 0 1.6-.1 2.4-.1.9 0 1.8 0 2.7.1V92h-.2c-.8 0-1.8-.1-1.9-.9 0-.5.3-1.1.5-1.9h.1-.1l.8-2.5h5.5l.9 2.8c.3.8.5 1.4.5 1.7 0 .7-1 .8-1.6.8h-.2v.6zm6.7.2c-1.1 0-2.1-.1-3.2-.1s-2.3.1-3.5.1h-.1v-.9h.4c.5 0 1.4-.1 1.4-.6 0-.3-.2-.9-.5-1.7l-.9-2.6h-5.2l-.7 2.4c-.2.8-.5 1.4-.5 1.8 0 .6.9.7 1.7.7h.4v.9h-.1c-.9 0-1.9-.1-2.8-.1-.8 0-1.7.1-2.5.1h-.1v-.9h.2c.9 0 1.6-.5 1.9-1.5l3.7-10.8c.3-.9.7-2 .9-3 .7-.3 1.7-.7 2.1-1 .1 0 .1-.1.2-.1s.2 0 .3.1c.1.2.1.4.2.6l4.3 12.3c.3.8.6 1.7.9 2.4.3.6.7.9 1.5.9h.2v1h-.2zm5.9-2.4c0 .9.7 1.2 1.4 1.3 1 .1 2 .1 3.1 0 1-.1 1.8-.7 2.2-1.3.4-.5.6-1.2.7-1.7h.7c-.3 1.3-.6 2.6-.9 4-2.1 0-4.1-.1-6.2-.1-2.1 0-4.1.1-6.2.1V92h.3c.8 0 1.8-.1 1.8-1.6v-12c0-1.2-.9-1.3-1.8-1.3h-.3v-.7c1.2 0 2.5.1 3.7.1 1.2 0 2.4-.1 3.6-.1v.6h-.6c-.9 0-1.6 0-1.6 1.3v12.1z"/><path d="M328.4 92.6c.3-1.3.6-2.5.8-3.8h-.5c-.1.5-.4 1.1-.7 1.7-.4.6-1.3 1.2-2.3 1.3-.6.1-1.2.1-1.8.1-.5 0-.9 0-1.3-.1-.8-.1-1.5-.4-1.5-1.4V78.3c0-1.3.8-1.4 1.7-1.4h.5v-.5c-1.2 0-2.3.1-3.5.1-1.2 0-2.4-.1-3.6-.1v.5h.2c.8 0 1.9.1 1.9 1.4v12c0 1.5-1 1.7-1.9 1.7h-.2v.5c2 0 4.1-.1 6.1-.1 2 .1 4.1.2 6.1.2m.1.2c-2.1 0-4.1-.1-6.2-.1-2.1 0-4.1.1-6.2.1h-.1v-.9h.4c.8 0 1.7-.1 1.7-1.5v-12c0-1.1-.8-1.2-1.7-1.2h-.4v-1h.1c1.2 0 2.5.1 3.7.1 1.2 0 2.4-.1 3.6-.1h.1v.9h-.7c-.9 0-1.5 0-1.5 1.2v12.1c0 .9.6 1.1 1.3 1.2h1.3c.6 0 1.2 0 1.8-.1 1-.1 1.8-.7 2.2-1.2.4-.5.6-1.1.7-1.7v-.1h.9v.1c-.3 1.5-.6 2.8-1 4.2z"/></svg>