<svg xmlns="http://www.w3.org/2000/svg" viewBox="0 0 482 313"><style>.st0{fill-rule:evenodd;clip-rule:evenodd}</style><g id="Layer_1"><path d="M55.9 138.4s26.6 3 26.6-20.6v-.4c0-23.6-26.6-20.6-26.6-20.6v41.6zm-12-52.8h20.7c12.5 0 30.7 11.3 30.7 31.4v.4c0 20.1-18.3 31.4-30.7 31.4H43.9V85.6z"/><path class="st0" d="M100.8 85.6h12.7V149h-12.7zm51.6 14.6s-4.2-4.8-9.8-4.8c-5.6 0-8.8 3.7-8.8 6.4s-.1 4.2 7.9 7.6 19.8 5.7 19.8 19.9c0 14.1-11.1 21.3-21 21.3-15.7 0-22.7-12-22.7-12l7.9-7.9s5 8.4 13.7 8.4 9.2-6.6 9.2-8.8c0-3.2-1.9-6.4-7.3-8.4s-20.1-4-20.1-18.2c0-12.8 9.5-19.1 20.2-19.1 9.6 0 17.9 7.5 17.9 7.5l-6.9 8.1zm61.6 2.7c-3.9-4-9.3-7-15.4-7-11.9 0-21.6 9.7-21.6 21.6s9.7 21.6 21.6 21.6c6 0 11.5-2.9 15.4-6.9v14.9c-4.6 2.4-9.8 3.8-15.4 3.8-18.4 0-33.4-14.9-33.4-33.4s14.9-33.4 33.4-33.4c5.6 0 10.8 1.4 15.4 3.8v15z"/><path d="M283.1 85.6h13.6l17.5 41.6 16.5-41.6h13.6l-26.7 65h-7.8zm121.6 10.6v18.5h6.8c5.2 0 8.6-4.7 8.6-8.9v-.8c0-4.1-3.3-8.9-8.6-8.9h-6.8zm-12.3-10.6H413c6.6 0 19.7 3.6 19.7 18.7s-13.6 18.2-13.6 18.2l19.4 26.5h-15.4L406 123.7h-1.3V149h-12.4V85.6zm-9.3 25v11.2h-21.5v16h22.5V149H349V85.6h35.1v11.2h-22.5v13.8z"/><path fill-rule="evenodd" clip-rule="evenodd" fill="none" stroke="#000" stroke-width="4" stroke-miterlimit="3.864" d="M14.8 12.5h452.5v288H14.8z"/><path d="M112.8 298.9s130.5-23.2 215.5-57.7c84.6-31.4 137.3-69.5 137.3-69.5v127.2H112.8z" fill-rule="evenodd" clip-rule="evenodd" fill="#f60"/><path class="st0" d="M152.9 165.2l13.9 13.3 1.2 1.2c.3.3.7.8 1.2 1.5V166h3.2v22.7l-14.2-13.6c-.8-.7-1.5-1.5-2.1-2.4v15.2h-3.2v-22.7zm30.5.9h12.2v3H187v5.5h8.6v3.1H187v7.1h8.6v3.1h-12.2zm28.3 21.9h-3.6v-19h-4.8v-3h13.1v3h-4.7zm15.8-21.9l4.1 11c.2.6.4 1.2.6 1.7.2.6.4 1.1.5 1.7.2-.8.5-1.6.7-2.3l.4-1.3 4.4-11.7 4.6 11.9c.4 1.1.8 2.3 1.1 3.5.1-.4.2-.9.5-1.6.2-.7.4-1.3.6-1.8l4.1-11.1h3.6l-8.5 22.7-5-12.5c-.4-1.1-.8-2.1-1.1-3.1-.3 1.2-.7 2.2-1 3.1l-4.9 12.4-8.4-22.7 3.7.1zm51.2 19.1c-2.3 2.2-5.1 3.4-8.2 3.4-1.6 0-3.1-.3-4.5-.9-1.4-.6-2.7-1.4-3.8-2.5-1.1-1.1-2-2.3-2.5-3.7-.6-1.4-.9-2.9-.9-4.4 0-3.2 1.1-5.9 3.4-8.1 2.3-2.2 5-3.3 8.3-3.3 3.2 0 6 1.1 8.2 3.4 2.3 2.2 3.4 4.9 3.4 8.1 0 3.1-1.1 5.8-3.4 8zm-2.6-13.9c-1.5-1.6-3.4-2.4-5.6-2.4-2.2 0-3.9.6-5.1 1.8-1.2 1.2-1.9 2.3-2.3 3.3-.4 1-.6 2-.6 3.2 0 2.3.8 4.2 2.3 5.8 1.5 1.6 3.4 2.4 5.7 2.4 2.2 0 4.1-.8 5.6-2.4 1.6-1.6 2.3-3.5 2.3-5.8 0-2.4-.8-4.3-2.3-5.9zm17.7 16.6h-3.3v-21.8h5c1.3 0 2.4.1 3.2.2.8.2 1.6.5 2.2 1 .7.5 1.2 1.2 1.5 2 .4.8.5 1.7.5 2.8 0 3.5-1.7 5.5-5 5.9l7.5 9.9h-4l-7.3-9.8h-.4v9.8zm.8-12.5c1.7 0 2.9-.2 3.6-.6.7-.4 1-1.2 1-2.4 0-1.3-.4-2.1-1.1-2.6-.7-.4-1.9-.7-3.6-.7h-.5v6.3h.6zm18.4-9.3h3.5v9l7.9-9h4.3l-8.6 9.7 9.6 12.1h-4.6l-8.6-11.1v11.1H313zm125-71.9v-5.3h1.8c.5 0 .8 0 1 .1.2.1.4.3.5.5.1.2.2.5.2.8 0 .4-.1.7-.3 1-.2.3-.5.4-.8.5.2.1.3.3.5.4.1.2.3.4.5.9l.5 1h-1l-.6-1.2c-.2-.4-.4-.7-.5-.8-.1-.1-.2-.2-.3-.2-.1 0-.2-.1-.4-.1h-.2V94h-.9zm.9-3.1h.6c.4 0 .7 0 .8-.1.1 0 .2-.1.2-.2.1-.1.1-.2.1-.4s0-.3-.1-.4c-.1-.1-.2-.2-.3-.2h-1.3v1.3z"/><circle cx="439.6" cy="91.7" r="4.3" fill-rule="evenodd" clip-rule="evenodd" fill="none" stroke="#000" stroke-width="1.234" stroke-linecap="round" stroke-miterlimit="3.864"/><radialGradient id="SVGID_1_" cx="252.432" cy="117.633" r="32.89" gradientUnits="userSpaceOnUse"><stop offset="0" stop-color="#fff"/><stop offset="1" stop-color="#f60"/></radialGradient><circle cx="252.4" cy="117.6" r="32.9" fill-rule="evenodd" clip-rule="evenodd" fill="url(#SVGID_1_)"/></g></svg>