<svg id="Capa_1" xmlns="http://www.w3.org/2000/svg" viewBox="0 0 183 121"><style>.st0,.st2{fill-rule:evenodd;clip-rule:evenodd;fill:#fcb131}.st2{fill:#fff}</style><path class="st0" d="M93 95.2c7.4 6.7 17.2 10.9 28 10.9 23 0 41.7-18.8 41.7-41.9 0-23.2-18.7-41.9-41.7-41.9-10.8 0-20.6 4.1-28 10.9-8.4 7.7-13.7 18.8-13.7 31.1 0 12.2 5.3 23.3 13.7 30.9z"/><path class="st0" d="M157.1 87.5c0-.7.6-1.4 1.3-1.4.7 0 1.3.6 1.3 1.4 0 .7-.6 1.4-1.3 1.4-.7 0-1.3-.6-1.3-1.4zm1.3 1.1c.6 0 1-.5 1-1 0-.6-.5-1-1-1-.6 0-1 .5-1 1s.5 1 1 1zm-.1-.5h-.3v-1.2h.5c.1 0 .2 0 .3.1.1.1.2.2.2.3 0 .1-.1.3-.2.3l.2.5h-.3l-.2-.5h-.2v.5-.7h.4l.1-.1s0-.1-.1-.1h-.3v.9h-.1z"/><path d="M106.5 59.7c-.2-1.5-.4-3-.7-4.4H80.2c.3-1.5.7-3 1.2-4.4h23.1c-.5-1.5-1.1-3-1.8-4.4H83.2c.7-1.5 1.5-3 2.4-4.4h14.8c-1-1.6-2-3-3.2-4.4h-8.4c1.3-1.6 2.7-3.1 4.2-4.4-7.4-6.7-17.2-10.9-28-10.9-23 0-41.7 18.8-41.7 41.9 0 23.2 18.7 41.9 41.7 41.9 10.8 0 20.6-4.1 28-10.9 1.5-1.4 2.9-2.9 4.2-4.4h-8.4c-1.2-1.4-2.2-2.9-3.2-4.4h14.8c.9-1.4 1.7-2.9 2.4-4.4H83.2c-.7-1.4-1.3-2.9-1.8-4.4h23.1c.5-1.4.9-2.9 1.2-4.4.3-1.5.5-2.9.7-4.4.2-1.5.2-2.9.2-4.4.1-1.8 0-3.3-.1-4.8z" fill-rule="evenodd" clip-rule="evenodd" fill="#ed1b2e"/><path class="st2" d="M157.1 73.9c0-.7.6-1.4 1.3-1.4.7 0 1.3.6 1.3 1.4 0 .7-.6 1.4-1.3 1.4-.7-.1-1.3-.7-1.3-1.4zm1.3 1c.6 0 1-.5 1-1 0-.6-.5-1-1-1-.6 0-1 .5-1 1 0 .6.5 1 1 1zm-.1-.4h-.3v-1.2h.5c.1 0 .2 0 .3.1.1.1.2.2.2.3 0 .1-.1.3-.2.3l.2.5h-.3l-.2-.5h-.2v.5-.7h.4l.1-.1s0-.1-.1-.1h-.3v.9h-.1z"/><path d="M78.8 76.3c-1.4.4-2.4.6-3.4.6-2.1 0-3.4-1.3-3.4-3.8 0-.5 0-1 .1-1.6l.3-1.7.2-1.4 2-11.8h4.3l-.5 2.6h2.7l-.6 4.4h-2.7l-1.2 7.1c-.1.3-.1.6-.1.7 0 .9.5 1.3 1.5 1.3.5 0 .9-.1 1.4-.2l-.6 3.8zm14-.2c-1.5.5-3 .7-4.6.7-4.8 0-7.7-2.7-7.7-7.7 0-5.9 3.4-10.3 7.9-10.3 3.7 0 6.1 2.4 6.1 6.3 0 1.3-.2 2.5-.6 4.3h-9v.5c0 2 1.3 3 4 3 1.6 0 3.1-.3 4.7-1.1l-.8 4.3zm-2.7-10.3v-.9c0-1.4-.8-2.2-2.1-2.2-1.4 0-2.5 1.1-2.9 3.1h5zM44.3 76.5h-4.5l2.6-16.4-5.8 16.4h-3.1l-.4-16.3-2.7 16.3H26l3.6-21.3h6.5l.1 13.2 4.4-13.2h7.2l-3.5 21.3zm10.9-7.7c-.5-.1-.6-.1-.9-.1-2.6 0-3.9 1-3.9 2.6 0 1.1.6 1.8 1.6 1.8 2.2 0 3.1-1.8 3.2-4.3zm3.6 7.7h-3.9l.1-1.8c-1 1.3-2.3 2.1-4.7 2.1-2.2 0-4-1.9-4-4.7 0-.8.2-1.6.3-2.3.7-2.7 3.4-4.4 7.5-4.4.5 0 1.3 0 2 .1.1-.6.2-.8.2-1.1 0-1.1-.9-1.5-3-1.5-1.3 0-2.7.2-3.7.5l-.6.2-.3.1.6-3.9c2.1-.6 3.6-.9 5.3-.9 3.9 0 5.9 1.8 5.9 5.1 0 .9.1 1.5-.2 3.4l-.9 6.1-.4 1-.1.9-.1.6v.5zm55.8-17.2c1.3 0 2.4.3 4 1.1l.7-4.6c-.4-.2-.5-.2-1.1-.4l-1.9-.5c-.6-.1-1.3-.2-2-.2-2.2 0-3.6 0-4.9.9-.7.4-1.6 1.1-2.7 2.3l-.5-.2-4.6 3.3.2-1.9H97l-2.8 17.3h4.5l1.7-9.3s.6-1.3.9-1.7c.8-1.1 1.6-1.1 2.5-1.1h.3c-.1 1-.2 2.1-.2 3.3 0 5.7 3.2 9.2 8.1 9.2 1.3 0 2.3-.2 4-.6l.8-4.8c-1.5.7-2.7 1.1-3.8 1.1-2.6 0-4.2-2-4.2-5.2 0-4.7 2.4-8 5.8-8zm38.2-4.1l-1 6.1c-1.1-1.6-2.4-2.4-4.1-2.4-2.4 0-4.6 1.4-5.9 3.9l-2.9-1.7.2-1.9h-4.8l-2.8 17.3h4.5l1.5-9.3s1.2-1.3 1.5-1.7c.7-.9 1.4-1 2-1.1-.5 1.5-.8 3.2-.8 5.1 0 4.3 2.2 7.2 5.5 7.2 1.7 0 2.9-.6 4.2-1.9l-.2 1.7h4.3l3.4-21.3h-4.6zm-5.5 17.2c-1.5 0-2.3-1.1-2.3-3.4 0-3.4 1.5-5.8 3.5-5.8 1.6 0 2.4 1.2 2.4 3.4 0 3.4-1.5 5.8-3.6 5.8zm-20.9-3.6c-.5-.1-.6-.1-.9-.1-2.6 0-3.9 1-3.9 2.6 0 1.1.6 1.8 1.6 1.8 2.3 0 3.2-1.8 3.2-4.3zm3.6 7.7h-3.9l.1-1.8c-1 1.3-2.3 2.1-4.7 2.1-2.2 0-4.2-1.9-4.2-4.7 0-4.1 3.1-6.6 8-6.6.5 0 1.3 0 2 .1.1-.6.2-.8.2-1.1 0-1.1-.9-1.5-3-1.5-1.3 0-2.7.2-3.7.5l-.6.2-.3.1.6-3.9c2.1-.6 3.6-.9 5.3-.9 3.9 0 5.9 1.8 5.9 5.1 0 .9.1 1.5-.2 3.4l-.9 6.1-.2 1.1-.1.9-.1.6-.2.3zM68.2 62.9c.9 0 2.1.1 3.4.3l.6-4c-1.3-.2-3-.3-4-.3-5.1 0-6.7 2.7-6.7 5.9 0 2.1 1 3.6 3.4 4.7 1.8.9 2.1 1 2.1 1.8 0 1.1-.9 1.7-2.7 1.7-1.3 0-2.6-.2-4-.7l-.5 4h.1l.8.2c.3.1.7.1 1.2.2 1.1.1 2 .2 2.6.2 5 0 7.1-2 7.1-5.8 0-2.4-1.1-3.8-3.4-4.8-1.9-.9-2.1-1-2.1-1.8-.1-.9.7-1.6 2.1-1.6z" fill="#003473" fill-rule="evenodd" clip-rule="evenodd"/><path class="st2" d="M120.6 54.5l-.7 4.6c-1.6-.8-2.8-1.1-4-1.1-3.4 0-5.7 3.3-5.7 8 0 3.2 1.6 5.2 4.2 5.2 1.1 0 2.3-.3 3.8-1.1l-.8 4.8c-1.7.5-2.7.6-4 .6-4.9 0-7.9-3.5-7.9-9.2 0-7.6 4.2-12.9 10.2-12.9.8 0 1.5.1 2 .2l1.9.5c.5.2.6.3 1 .4zm-14.5 3.2h-.5c-1.5 0-2.3.8-3.7 2.8l.4-2.6h-4.1l-2.8 17.3h4.5c1.6-10.6 2-12.4 4.2-12.4h.3c.4-2.1 1-3.6 1.7-5v-.1zM80 74.9c-1.2.4-2.2.6-3.2.6-2.3 0-3.6-1.3-3.6-3.8 0-.5 0-1 .1-1.6l.3-1.7.2-1.4 2-11.8h4.5l-.5 2.6H82l-.6 4.2h-2.3l-1.2 7.2c-.1.3-.1.6-.1.7 0 .9.5 1.3 1.5 1.3.5 0 .9-.1 1.2-.2l-.5 3.9zM62.6 63.3c0 2.2 1.1 3.7 3.4 4.8 1.8.9 2.1 1.1 2.1 1.9 0 1.1-.8 1.6-2.6 1.6-1.3 0-2.6-.2-4-.7l-.6 4h.2l.8.2c.3.1.7.1 1.2.2 1.1.1 1.9.1 2.5.1 4.8 0 7-1.8 7-5.8 0-2.4-.9-3.8-3.2-4.8-1.9-.9-2.1-1.1-2.1-1.9 0-.9.8-1.4 2.2-1.4.9 0 2.1.1 3.2.3l.6-4c-1.2-.2-2.9-.3-4-.3-4.9 0-6.7 2.6-6.7 5.8zm92.5 11.8h-4.3l.2-1.7c-1.2 1.3-2.5 1.9-4.2 1.9-3.3 0-5.5-2.9-5.5-7.2 0-5.8 3.4-10.6 7.4-10.6 1.8 0 3.1.7 4.3 2.4l1-6.1h4.5l-3.4 21.3zm-6.7-4c2.1 0 3.6-2.4 3.6-5.8 0-2.2-.8-3.4-2.4-3.4-2.1 0-3.5 2.4-3.5 5.8 0 2.2.8 3.4 2.3 3.4zm-54.6 3.7c-1.5.5-3 .7-4.6.7-5.1 0-7.7-2.7-7.7-7.7 0-5.9 3.4-10.3 7.9-10.3 3.7 0 6.1 2.4 6.1 6.3 0 1.3-.2 2.5-.6 4.3h-9v.5c0 2 1.3 3 4 3 1.6 0 3.1-.3 4.7-1.1l-.8 4.3zm-2.5-10.3v-.9c0-1.4-.8-2.2-2.1-2.2-1.4 0-2.5 1.1-2.9 3.1h5zM45.5 75.1h-4.6l2.6-16.3-5.7 16.3h-3.1l-.4-16.2-2.7 16.2h-4.3l3.6-21.2h6.5l.2 13.1 4.3-13.1H49l-3.5 21.2zm11.1-7.7c-.5-.1-.7-.1-1-.1-2.6 0-3.9.9-3.9 2.6 0 1.1.6 1.8 1.6 1.8 1.9.1 3.2-1.7 3.3-4.3zm3.3 7.7h-3.7l.1-1.8c-1.1 1.4-2.7 2.1-4.7 2.1-2.5 0-4.1-1.9-4.1-4.7 0-4.2 2.9-6.7 7.9-6.7.5 0 1.2 0 1.8.1.1-.6.2-.8.2-1.1 0-1.1-.8-1.6-2.9-1.6-1.3 0-2.8.2-3.8.5l-.7.3-.4.1.6-3.9c2.3-.7 3.7-.9 5.4-.9 3.9 0 5.9 1.8 5.9 5.1 0 .9-.1 1.5-.4 3.4l-.9 6.1-.2 1.1v.9l-.1.6v.4zm68-7.7c-.5-.1-.7-.1-1-.1-2.6 0-3.9.9-3.9 2.6 0 1.1.6 1.8 1.6 1.8 1.9.1 3.2-1.7 3.3-4.3zm3.3 7.7h-3.7l.1-1.8c-1.1 1.4-2.7 2.1-4.7 2.1-2.5 0-4.1-1.9-4.1-4.7 0-4.2 2.9-6.7 7.9-6.7.5 0 1.2 0 1.8.1.1-.6.2-.8.2-1.1 0-1.1-.8-1.6-2.9-1.6-1.3 0-2.7.2-3.8.5l-.6.2-.4.1.6-3.9c2.3-.7 3.7-.9 5.4-.9 3.9 0 5.9 1.8 5.9 5.1 0 .9-.1 1.5-.4 3.4l-.9 6.1-.2 1.1-.1.9-.1.6v.5zm12.1-17.4h-.5c-1.5 0-2.3.8-3.7 2.8l.4-2.6h-4.1l-2.8 17.3h4.5c1.6-10.6 2-12.4 4.2-12.4h.3c.4-2.1 1-3.6 1.7-5v-.1z"/></svg>